<?xml version="1.0"?>
<svg xmlns="http://www.w3.org/2000/svg" xmlns:xlink="http://www.w3.org/1999/xlink" version="1.1" width="1324px" height="1324px" viewBox="0 0 1324 1324"><defs><rect id="block" width="33" height="33" fill="#000000" fill-opacity="0.99212598425197"/></defs><rect x="0" y="0" width="1324" height="1324" fill="#ffffff" fill-opacity="0.99212598425197"/><use x="51" y="51" xlink:href="#block"/><use x="84" y="51" xlink:href="#block"/><use x="117" y="51" xlink:href="#block"/><use x="150" y="51" xlink:href="#block"/><use x="183" y="51" xlink:href="#block"/><use x="216" y="51" xlink:href="#block"/><use x="249" y="51" xlink:href="#block"/><use x="414" y="51" xlink:href="#block"/><use x="513" y="51" xlink:href="#block"/><use x="579" y="51" xlink:href="#block"/><use x="645" y="51" xlink:href="#block"/><use x="711" y="51" xlink:href="#block"/><use x="744" y="51" xlink:href="#block"/><use x="843" y="51" xlink:href="#block"/><use x="876" y="51" xlink:href="#block"/><use x="942" y="51" xlink:href="#block"/><use x="975" y="51" xlink:href="#block"/><use x="1041" y="51" xlink:href="#block"/><use x="1074" y="51" xlink:href="#block"/><use x="1107" y="51" xlink:href="#block"/><use x="1140" y="51" xlink:href="#block"/><use x="1173" y="51" xlink:href="#block"/><use x="1206" y="51" xlink:href="#block"/><use x="1239" y="51" xlink:href="#block"/><use x="51" y="84" xlink:href="#block"/><use x="249" y="84" xlink:href="#block"/><use x="315" y="84" xlink:href="#block"/><use x="348" y="84" xlink:href="#block"/><use x="414" y="84" xlink:href="#block"/><use x="447" y="84" xlink:href="#block"/><use x="513" y="84" xlink:href="#block"/><use x="546" y="84" xlink:href="#block"/><use x="579" y="84" xlink:href="#block"/><use x="645" y="84" xlink:href="#block"/><use x="711" y="84" xlink:href="#block"/><use x="744" y="84" xlink:href="#block"/><use x="810" y="84" xlink:href="#block"/><use x="876" y="84" xlink:href="#block"/><use x="909" y="84" xlink:href="#block"/><use x="1041" y="84" xlink:href="#block"/><use x="1239" y="84" xlink:href="#block"/><use x="51" y="117" xlink:href="#block"/><use x="117" y="117" xlink:href="#block"/><use x="150" y="117" xlink:href="#block"/><use x="183" y="117" xlink:href="#block"/><use x="249" y="117" xlink:href="#block"/><use x="315" y="117" xlink:href="#block"/><use x="348" y="117" xlink:href="#block"/><use x="447" y="117" xlink:href="#block"/><use x="480" y="117" xlink:href="#block"/><use x="513" y="117" xlink:href="#block"/><use x="579" y="117" xlink:href="#block"/><use x="645" y="117" xlink:href="#block"/><use x="678" y="117" xlink:href="#block"/><use x="711" y="117" xlink:href="#block"/><use x="744" y="117" xlink:href="#block"/><use x="810" y="117" xlink:href="#block"/><use x="843" y="117" xlink:href="#block"/><use x="909" y="117" xlink:href="#block"/><use x="1041" y="117" xlink:href="#block"/><use x="1107" y="117" xlink:href="#block"/><use x="1140" y="117" xlink:href="#block"/><use x="1173" y="117" xlink:href="#block"/><use x="1239" y="117" xlink:href="#block"/><use x="51" y="150" xlink:href="#block"/><use x="117" y="150" xlink:href="#block"/><use x="150" y="150" xlink:href="#block"/><use x="183" y="150" xlink:href="#block"/><use x="249" y="150" xlink:href="#block"/><use x="315" y="150" xlink:href="#block"/><use x="348" y="150" xlink:href="#block"/><use x="414" y="150" xlink:href="#block"/><use x="579" y="150" xlink:href="#block"/><use x="612" y="150" xlink:href="#block"/><use x="645" y="150" xlink:href="#block"/><use x="711" y="150" xlink:href="#block"/><use x="843" y="150" xlink:href="#block"/><use x="1041" y="150" xlink:href="#block"/><use x="1107" y="150" xlink:href="#block"/><use x="1140" y="150" xlink:href="#block"/><use x="1173" y="150" xlink:href="#block"/><use x="1239" y="150" xlink:href="#block"/><use x="51" y="183" xlink:href="#block"/><use x="117" y="183" xlink:href="#block"/><use x="150" y="183" xlink:href="#block"/><use x="183" y="183" xlink:href="#block"/><use x="249" y="183" xlink:href="#block"/><use x="315" y="183" xlink:href="#block"/><use x="348" y="183" xlink:href="#block"/><use x="381" y="183" xlink:href="#block"/><use x="414" y="183" xlink:href="#block"/><use x="513" y="183" xlink:href="#block"/><use x="612" y="183" xlink:href="#block"/><use x="645" y="183" xlink:href="#block"/><use x="711" y="183" xlink:href="#block"/><use x="744" y="183" xlink:href="#block"/><use x="777" y="183" xlink:href="#block"/><use x="843" y="183" xlink:href="#block"/><use x="876" y="183" xlink:href="#block"/><use x="909" y="183" xlink:href="#block"/><use x="975" y="183" xlink:href="#block"/><use x="1041" y="183" xlink:href="#block"/><use x="1107" y="183" xlink:href="#block"/><use x="1140" y="183" xlink:href="#block"/><use x="1173" y="183" xlink:href="#block"/><use x="1239" y="183" xlink:href="#block"/><use x="51" y="216" xlink:href="#block"/><use x="249" y="216" xlink:href="#block"/><use x="315" y="216" xlink:href="#block"/><use x="381" y="216" xlink:href="#block"/><use x="513" y="216" xlink:href="#block"/><use x="546" y="216" xlink:href="#block"/><use x="645" y="216" xlink:href="#block"/><use x="711" y="216" xlink:href="#block"/><use x="744" y="216" xlink:href="#block"/><use x="777" y="216" xlink:href="#block"/><use x="843" y="216" xlink:href="#block"/><use x="942" y="216" xlink:href="#block"/><use x="975" y="216" xlink:href="#block"/><use x="1041" y="216" xlink:href="#block"/><use x="1239" y="216" xlink:href="#block"/><use x="51" y="249" xlink:href="#block"/><use x="84" y="249" xlink:href="#block"/><use x="117" y="249" xlink:href="#block"/><use x="150" y="249" xlink:href="#block"/><use x="183" y="249" xlink:href="#block"/><use x="216" y="249" xlink:href="#block"/><use x="249" y="249" xlink:href="#block"/><use x="315" y="249" xlink:href="#block"/><use x="381" y="249" xlink:href="#block"/><use x="447" y="249" xlink:href="#block"/><use x="513" y="249" xlink:href="#block"/><use x="579" y="249" xlink:href="#block"/><use x="645" y="249" xlink:href="#block"/><use x="711" y="249" xlink:href="#block"/><use x="777" y="249" xlink:href="#block"/><use x="843" y="249" xlink:href="#block"/><use x="909" y="249" xlink:href="#block"/><use x="975" y="249" xlink:href="#block"/><use x="1041" y="249" xlink:href="#block"/><use x="1074" y="249" xlink:href="#block"/><use x="1107" y="249" xlink:href="#block"/><use x="1140" y="249" xlink:href="#block"/><use x="1173" y="249" xlink:href="#block"/><use x="1206" y="249" xlink:href="#block"/><use x="1239" y="249" xlink:href="#block"/><use x="381" y="282" xlink:href="#block"/><use x="414" y="282" xlink:href="#block"/><use x="513" y="282" xlink:href="#block"/><use x="546" y="282" xlink:href="#block"/><use x="579" y="282" xlink:href="#block"/><use x="612" y="282" xlink:href="#block"/><use x="645" y="282" xlink:href="#block"/><use x="678" y="282" xlink:href="#block"/><use x="711" y="282" xlink:href="#block"/><use x="843" y="282" xlink:href="#block"/><use x="909" y="282" xlink:href="#block"/><use x="942" y="282" xlink:href="#block"/><use x="117" y="315" xlink:href="#block"/><use x="216" y="315" xlink:href="#block"/><use x="249" y="315" xlink:href="#block"/><use x="282" y="315" xlink:href="#block"/><use x="315" y="315" xlink:href="#block"/><use x="348" y="315" xlink:href="#block"/><use x="381" y="315" xlink:href="#block"/><use x="414" y="315" xlink:href="#block"/><use x="480" y="315" xlink:href="#block"/><use x="546" y="315" xlink:href="#block"/><use x="579" y="315" xlink:href="#block"/><use x="744" y="315" xlink:href="#block"/><use x="777" y="315" xlink:href="#block"/><use x="810" y="315" xlink:href="#block"/><use x="843" y="315" xlink:href="#block"/><use x="876" y="315" xlink:href="#block"/><use x="909" y="315" xlink:href="#block"/><use x="942" y="315" xlink:href="#block"/><use x="975" y="315" xlink:href="#block"/><use x="1008" y="315" xlink:href="#block"/><use x="1074" y="315" xlink:href="#block"/><use x="1107" y="315" xlink:href="#block"/><use x="1140" y="315" xlink:href="#block"/><use x="1173" y="315" xlink:href="#block"/><use x="1206" y="315" xlink:href="#block"/><use x="51" y="348" xlink:href="#block"/><use x="84" y="348" xlink:href="#block"/><use x="150" y="348" xlink:href="#block"/><use x="183" y="348" xlink:href="#block"/><use x="315" y="348" xlink:href="#block"/><use x="348" y="348" xlink:href="#block"/><use x="447" y="348" xlink:href="#block"/><use x="513" y="348" xlink:href="#block"/><use x="546" y="348" xlink:href="#block"/><use x="612" y="348" xlink:href="#block"/><use x="678" y="348" xlink:href="#block"/><use x="744" y="348" xlink:href="#block"/><use x="777" y="348" xlink:href="#block"/><use x="843" y="348" xlink:href="#block"/><use x="909" y="348" xlink:href="#block"/><use x="975" y="348" xlink:href="#block"/><use x="1041" y="348" xlink:href="#block"/><use x="1074" y="348" xlink:href="#block"/><use x="1140" y="348" xlink:href="#block"/><use x="1206" y="348" xlink:href="#block"/><use x="51" y="381" xlink:href="#block"/><use x="150" y="381" xlink:href="#block"/><use x="249" y="381" xlink:href="#block"/><use x="282" y="381" xlink:href="#block"/><use x="315" y="381" xlink:href="#block"/><use x="447" y="381" xlink:href="#block"/><use x="480" y="381" xlink:href="#block"/><use x="513" y="381" xlink:href="#block"/><use x="579" y="381" xlink:href="#block"/><use x="909" y="381" xlink:href="#block"/><use x="975" y="381" xlink:href="#block"/><use x="1041" y="381" xlink:href="#block"/><use x="1140" y="381" xlink:href="#block"/><use x="183" y="414" xlink:href="#block"/><use x="315" y="414" xlink:href="#block"/><use x="381" y="414" xlink:href="#block"/><use x="513" y="414" xlink:href="#block"/><use x="546" y="414" xlink:href="#block"/><use x="579" y="414" xlink:href="#block"/><use x="612" y="414" xlink:href="#block"/><use x="711" y="414" xlink:href="#block"/><use x="777" y="414" xlink:href="#block"/><use x="876" y="414" xlink:href="#block"/><use x="942" y="414" xlink:href="#block"/><use x="975" y="414" xlink:href="#block"/><use x="1008" y="414" xlink:href="#block"/><use x="1041" y="414" xlink:href="#block"/><use x="1074" y="414" xlink:href="#block"/><use x="1173" y="414" xlink:href="#block"/><use x="1239" y="414" xlink:href="#block"/><use x="51" y="447" xlink:href="#block"/><use x="183" y="447" xlink:href="#block"/><use x="216" y="447" xlink:href="#block"/><use x="249" y="447" xlink:href="#block"/><use x="414" y="447" xlink:href="#block"/><use x="447" y="447" xlink:href="#block"/><use x="513" y="447" xlink:href="#block"/><use x="744" y="447" xlink:href="#block"/><use x="1041" y="447" xlink:href="#block"/><use x="1173" y="447" xlink:href="#block"/><use x="1239" y="447" xlink:href="#block"/><use x="84" y="480" xlink:href="#block"/><use x="117" y="480" xlink:href="#block"/><use x="183" y="480" xlink:href="#block"/><use x="315" y="480" xlink:href="#block"/><use x="480" y="480" xlink:href="#block"/><use x="546" y="480" xlink:href="#block"/><use x="645" y="480" xlink:href="#block"/><use x="744" y="480" xlink:href="#block"/><use x="777" y="480" xlink:href="#block"/><use x="810" y="480" xlink:href="#block"/><use x="909" y="480" xlink:href="#block"/><use x="942" y="480" xlink:href="#block"/><use x="1074" y="480" xlink:href="#block"/><use x="1107" y="480" xlink:href="#block"/><use x="1206" y="480" xlink:href="#block"/><use x="1239" y="480" xlink:href="#block"/><use x="117" y="513" xlink:href="#block"/><use x="150" y="513" xlink:href="#block"/><use x="183" y="513" xlink:href="#block"/><use x="216" y="513" xlink:href="#block"/><use x="249" y="513" xlink:href="#block"/><use x="348" y="513" xlink:href="#block"/><use x="414" y="513" xlink:href="#block"/><use x="447" y="513" xlink:href="#block"/><use x="513" y="513" xlink:href="#block"/><use x="645" y="513" xlink:href="#block"/><use x="678" y="513" xlink:href="#block"/><use x="711" y="513" xlink:href="#block"/><use x="777" y="513" xlink:href="#block"/><use x="810" y="513" xlink:href="#block"/><use x="843" y="513" xlink:href="#block"/><use x="942" y="513" xlink:href="#block"/><use x="1041" y="513" xlink:href="#block"/><use x="1074" y="513" xlink:href="#block"/><use x="1140" y="513" xlink:href="#block"/><use x="1239" y="513" xlink:href="#block"/><use x="84" y="546" xlink:href="#block"/><use x="216" y="546" xlink:href="#block"/><use x="282" y="546" xlink:href="#block"/><use x="315" y="546" xlink:href="#block"/><use x="480" y="546" xlink:href="#block"/><use x="546" y="546" xlink:href="#block"/><use x="579" y="546" xlink:href="#block"/><use x="645" y="546" xlink:href="#block"/><use x="678" y="546" xlink:href="#block"/><use x="711" y="546" xlink:href="#block"/><use x="777" y="546" xlink:href="#block"/><use x="942" y="546" xlink:href="#block"/><use x="975" y="546" xlink:href="#block"/><use x="1041" y="546" xlink:href="#block"/><use x="1074" y="546" xlink:href="#block"/><use x="1140" y="546" xlink:href="#block"/><use x="1206" y="546" xlink:href="#block"/><use x="1239" y="546" xlink:href="#block"/><use x="117" y="579" xlink:href="#block"/><use x="150" y="579" xlink:href="#block"/><use x="183" y="579" xlink:href="#block"/><use x="249" y="579" xlink:href="#block"/><use x="447" y="579" xlink:href="#block"/><use x="513" y="579" xlink:href="#block"/><use x="579" y="579" xlink:href="#block"/><use x="645" y="579" xlink:href="#block"/><use x="744" y="579" xlink:href="#block"/><use x="810" y="579" xlink:href="#block"/><use x="942" y="579" xlink:href="#block"/><use x="975" y="579" xlink:href="#block"/><use x="1107" y="579" xlink:href="#block"/><use x="1173" y="579" xlink:href="#block"/><use x="1239" y="579" xlink:href="#block"/><use x="51" y="612" xlink:href="#block"/><use x="84" y="612" xlink:href="#block"/><use x="150" y="612" xlink:href="#block"/><use x="183" y="612" xlink:href="#block"/><use x="216" y="612" xlink:href="#block"/><use x="282" y="612" xlink:href="#block"/><use x="315" y="612" xlink:href="#block"/><use x="381" y="612" xlink:href="#block"/><use x="414" y="612" xlink:href="#block"/><use x="447" y="612" xlink:href="#block"/><use x="546" y="612" xlink:href="#block"/><use x="612" y="612" xlink:href="#block"/><use x="678" y="612" xlink:href="#block"/><use x="744" y="612" xlink:href="#block"/><use x="777" y="612" xlink:href="#block"/><use x="810" y="612" xlink:href="#block"/><use x="909" y="612" xlink:href="#block"/><use x="975" y="612" xlink:href="#block"/><use x="1041" y="612" xlink:href="#block"/><use x="1107" y="612" xlink:href="#block"/><use x="1140" y="612" xlink:href="#block"/><use x="183" y="645" xlink:href="#block"/><use x="249" y="645" xlink:href="#block"/><use x="282" y="645" xlink:href="#block"/><use x="381" y="645" xlink:href="#block"/><use x="579" y="645" xlink:href="#block"/><use x="645" y="645" xlink:href="#block"/><use x="678" y="645" xlink:href="#block"/><use x="777" y="645" xlink:href="#block"/><use x="942" y="645" xlink:href="#block"/><use x="1041" y="645" xlink:href="#block"/><use x="1074" y="645" xlink:href="#block"/><use x="1239" y="645" xlink:href="#block"/><use x="84" y="678" xlink:href="#block"/><use x="315" y="678" xlink:href="#block"/><use x="348" y="678" xlink:href="#block"/><use x="381" y="678" xlink:href="#block"/><use x="447" y="678" xlink:href="#block"/><use x="612" y="678" xlink:href="#block"/><use x="645" y="678" xlink:href="#block"/><use x="678" y="678" xlink:href="#block"/><use x="711" y="678" xlink:href="#block"/><use x="777" y="678" xlink:href="#block"/><use x="810" y="678" xlink:href="#block"/><use x="843" y="678" xlink:href="#block"/><use x="876" y="678" xlink:href="#block"/><use x="942" y="678" xlink:href="#block"/><use x="975" y="678" xlink:href="#block"/><use x="1041" y="678" xlink:href="#block"/><use x="1074" y="678" xlink:href="#block"/><use x="1140" y="678" xlink:href="#block"/><use x="1239" y="678" xlink:href="#block"/><use x="84" y="711" xlink:href="#block"/><use x="117" y="711" xlink:href="#block"/><use x="216" y="711" xlink:href="#block"/><use x="249" y="711" xlink:href="#block"/><use x="315" y="711" xlink:href="#block"/><use x="381" y="711" xlink:href="#block"/><use x="414" y="711" xlink:href="#block"/><use x="447" y="711" xlink:href="#block"/><use x="480" y="711" xlink:href="#block"/><use x="579" y="711" xlink:href="#block"/><use x="612" y="711" xlink:href="#block"/><use x="744" y="711" xlink:href="#block"/><use x="777" y="711" xlink:href="#block"/><use x="942" y="711" xlink:href="#block"/><use x="1074" y="711" xlink:href="#block"/><use x="1107" y="711" xlink:href="#block"/><use x="1206" y="711" xlink:href="#block"/><use x="51" y="744" xlink:href="#block"/><use x="84" y="744" xlink:href="#block"/><use x="117" y="744" xlink:href="#block"/><use x="183" y="744" xlink:href="#block"/><use x="282" y="744" xlink:href="#block"/><use x="315" y="744" xlink:href="#block"/><use x="414" y="744" xlink:href="#block"/><use x="447" y="744" xlink:href="#block"/><use x="480" y="744" xlink:href="#block"/><use x="513" y="744" xlink:href="#block"/><use x="579" y="744" xlink:href="#block"/><use x="612" y="744" xlink:href="#block"/><use x="777" y="744" xlink:href="#block"/><use x="810" y="744" xlink:href="#block"/><use x="876" y="744" xlink:href="#block"/><use x="909" y="744" xlink:href="#block"/><use x="942" y="744" xlink:href="#block"/><use x="1008" y="744" xlink:href="#block"/><use x="1074" y="744" xlink:href="#block"/><use x="150" y="777" xlink:href="#block"/><use x="183" y="777" xlink:href="#block"/><use x="216" y="777" xlink:href="#block"/><use x="249" y="777" xlink:href="#block"/><use x="315" y="777" xlink:href="#block"/><use x="414" y="777" xlink:href="#block"/><use x="513" y="777" xlink:href="#block"/><use x="579" y="777" xlink:href="#block"/><use x="711" y="777" xlink:href="#block"/><use x="744" y="777" xlink:href="#block"/><use x="942" y="777" xlink:href="#block"/><use x="1008" y="777" xlink:href="#block"/><use x="1041" y="777" xlink:href="#block"/><use x="1140" y="777" xlink:href="#block"/><use x="150" y="810" xlink:href="#block"/><use x="183" y="810" xlink:href="#block"/><use x="216" y="810" xlink:href="#block"/><use x="348" y="810" xlink:href="#block"/><use x="447" y="810" xlink:href="#block"/><use x="480" y="810" xlink:href="#block"/><use x="513" y="810" xlink:href="#block"/><use x="546" y="810" xlink:href="#block"/><use x="645" y="810" xlink:href="#block"/><use x="711" y="810" xlink:href="#block"/><use x="777" y="810" xlink:href="#block"/><use x="810" y="810" xlink:href="#block"/><use x="876" y="810" xlink:href="#block"/><use x="942" y="810" xlink:href="#block"/><use x="975" y="810" xlink:href="#block"/><use x="1041" y="810" xlink:href="#block"/><use x="1074" y="810" xlink:href="#block"/><use x="1140" y="810" xlink:href="#block"/><use x="1173" y="810" xlink:href="#block"/><use x="1239" y="810" xlink:href="#block"/><use x="84" y="843" xlink:href="#block"/><use x="150" y="843" xlink:href="#block"/><use x="183" y="843" xlink:href="#block"/><use x="216" y="843" xlink:href="#block"/><use x="249" y="843" xlink:href="#block"/><use x="348" y="843" xlink:href="#block"/><use x="447" y="843" xlink:href="#block"/><use x="480" y="843" xlink:href="#block"/><use x="513" y="843" xlink:href="#block"/><use x="546" y="843" xlink:href="#block"/><use x="579" y="843" xlink:href="#block"/><use x="777" y="843" xlink:href="#block"/><use x="843" y="843" xlink:href="#block"/><use x="876" y="843" xlink:href="#block"/><use x="942" y="843" xlink:href="#block"/><use x="975" y="843" xlink:href="#block"/><use x="1074" y="843" xlink:href="#block"/><use x="1107" y="843" xlink:href="#block"/><use x="1140" y="843" xlink:href="#block"/><use x="1239" y="843" xlink:href="#block"/><use x="84" y="876" xlink:href="#block"/><use x="117" y="876" xlink:href="#block"/><use x="183" y="876" xlink:href="#block"/><use x="216" y="876" xlink:href="#block"/><use x="348" y="876" xlink:href="#block"/><use x="381" y="876" xlink:href="#block"/><use x="414" y="876" xlink:href="#block"/><use x="447" y="876" xlink:href="#block"/><use x="513" y="876" xlink:href="#block"/><use x="678" y="876" xlink:href="#block"/><use x="843" y="876" xlink:href="#block"/><use x="1008" y="876" xlink:href="#block"/><use x="1041" y="876" xlink:href="#block"/><use x="1074" y="876" xlink:href="#block"/><use x="1140" y="876" xlink:href="#block"/><use x="1206" y="876" xlink:href="#block"/><use x="51" y="909" xlink:href="#block"/><use x="84" y="909" xlink:href="#block"/><use x="117" y="909" xlink:href="#block"/><use x="216" y="909" xlink:href="#block"/><use x="249" y="909" xlink:href="#block"/><use x="282" y="909" xlink:href="#block"/><use x="315" y="909" xlink:href="#block"/><use x="348" y="909" xlink:href="#block"/><use x="414" y="909" xlink:href="#block"/><use x="447" y="909" xlink:href="#block"/><use x="513" y="909" xlink:href="#block"/><use x="546" y="909" xlink:href="#block"/><use x="579" y="909" xlink:href="#block"/><use x="612" y="909" xlink:href="#block"/><use x="645" y="909" xlink:href="#block"/><use x="678" y="909" xlink:href="#block"/><use x="744" y="909" xlink:href="#block"/><use x="777" y="909" xlink:href="#block"/><use x="843" y="909" xlink:href="#block"/><use x="909" y="909" xlink:href="#block"/><use x="942" y="909" xlink:href="#block"/><use x="975" y="909" xlink:href="#block"/><use x="1041" y="909" xlink:href="#block"/><use x="1206" y="909" xlink:href="#block"/><use x="1239" y="909" xlink:href="#block"/><use x="183" y="942" xlink:href="#block"/><use x="315" y="942" xlink:href="#block"/><use x="480" y="942" xlink:href="#block"/><use x="546" y="942" xlink:href="#block"/><use x="579" y="942" xlink:href="#block"/><use x="612" y="942" xlink:href="#block"/><use x="810" y="942" xlink:href="#block"/><use x="843" y="942" xlink:href="#block"/><use x="876" y="942" xlink:href="#block"/><use x="1008" y="942" xlink:href="#block"/><use x="1041" y="942" xlink:href="#block"/><use x="1074" y="942" xlink:href="#block"/><use x="1173" y="942" xlink:href="#block"/><use x="1239" y="942" xlink:href="#block"/><use x="51" y="975" xlink:href="#block"/><use x="84" y="975" xlink:href="#block"/><use x="117" y="975" xlink:href="#block"/><use x="216" y="975" xlink:href="#block"/><use x="249" y="975" xlink:href="#block"/><use x="315" y="975" xlink:href="#block"/><use x="348" y="975" xlink:href="#block"/><use x="381" y="975" xlink:href="#block"/><use x="414" y="975" xlink:href="#block"/><use x="447" y="975" xlink:href="#block"/><use x="513" y="975" xlink:href="#block"/><use x="546" y="975" xlink:href="#block"/><use x="612" y="975" xlink:href="#block"/><use x="645" y="975" xlink:href="#block"/><use x="777" y="975" xlink:href="#block"/><use x="843" y="975" xlink:href="#block"/><use x="942" y="975" xlink:href="#block"/><use x="975" y="975" xlink:href="#block"/><use x="1008" y="975" xlink:href="#block"/><use x="1041" y="975" xlink:href="#block"/><use x="1074" y="975" xlink:href="#block"/><use x="1107" y="975" xlink:href="#block"/><use x="1140" y="975" xlink:href="#block"/><use x="1173" y="975" xlink:href="#block"/><use x="1239" y="975" xlink:href="#block"/><use x="315" y="1008" xlink:href="#block"/><use x="480" y="1008" xlink:href="#block"/><use x="513" y="1008" xlink:href="#block"/><use x="579" y="1008" xlink:href="#block"/><use x="612" y="1008" xlink:href="#block"/><use x="810" y="1008" xlink:href="#block"/><use x="843" y="1008" xlink:href="#block"/><use x="909" y="1008" xlink:href="#block"/><use x="942" y="1008" xlink:href="#block"/><use x="975" y="1008" xlink:href="#block"/><use x="1107" y="1008" xlink:href="#block"/><use x="1140" y="1008" xlink:href="#block"/><use x="1206" y="1008" xlink:href="#block"/><use x="1239" y="1008" xlink:href="#block"/><use x="51" y="1041" xlink:href="#block"/><use x="84" y="1041" xlink:href="#block"/><use x="117" y="1041" xlink:href="#block"/><use x="150" y="1041" xlink:href="#block"/><use x="183" y="1041" xlink:href="#block"/><use x="216" y="1041" xlink:href="#block"/><use x="249" y="1041" xlink:href="#block"/><use x="315" y="1041" xlink:href="#block"/><use x="381" y="1041" xlink:href="#block"/><use x="414" y="1041" xlink:href="#block"/><use x="447" y="1041" xlink:href="#block"/><use x="546" y="1041" xlink:href="#block"/><use x="744" y="1041" xlink:href="#block"/><use x="777" y="1041" xlink:href="#block"/><use x="810" y="1041" xlink:href="#block"/><use x="843" y="1041" xlink:href="#block"/><use x="975" y="1041" xlink:href="#block"/><use x="1041" y="1041" xlink:href="#block"/><use x="1107" y="1041" xlink:href="#block"/><use x="1140" y="1041" xlink:href="#block"/><use x="1239" y="1041" xlink:href="#block"/><use x="51" y="1074" xlink:href="#block"/><use x="249" y="1074" xlink:href="#block"/><use x="315" y="1074" xlink:href="#block"/><use x="348" y="1074" xlink:href="#block"/><use x="381" y="1074" xlink:href="#block"/><use x="414" y="1074" xlink:href="#block"/><use x="513" y="1074" xlink:href="#block"/><use x="579" y="1074" xlink:href="#block"/><use x="612" y="1074" xlink:href="#block"/><use x="645" y="1074" xlink:href="#block"/><use x="678" y="1074" xlink:href="#block"/><use x="711" y="1074" xlink:href="#block"/><use x="810" y="1074" xlink:href="#block"/><use x="843" y="1074" xlink:href="#block"/><use x="909" y="1074" xlink:href="#block"/><use x="942" y="1074" xlink:href="#block"/><use x="975" y="1074" xlink:href="#block"/><use x="1107" y="1074" xlink:href="#block"/><use x="1173" y="1074" xlink:href="#block"/><use x="1206" y="1074" xlink:href="#block"/><use x="1239" y="1074" xlink:href="#block"/><use x="51" y="1107" xlink:href="#block"/><use x="117" y="1107" xlink:href="#block"/><use x="150" y="1107" xlink:href="#block"/><use x="183" y="1107" xlink:href="#block"/><use x="249" y="1107" xlink:href="#block"/><use x="348" y="1107" xlink:href="#block"/><use x="414" y="1107" xlink:href="#block"/><use x="480" y="1107" xlink:href="#block"/><use x="546" y="1107" xlink:href="#block"/><use x="612" y="1107" xlink:href="#block"/><use x="678" y="1107" xlink:href="#block"/><use x="711" y="1107" xlink:href="#block"/><use x="810" y="1107" xlink:href="#block"/><use x="909" y="1107" xlink:href="#block"/><use x="975" y="1107" xlink:href="#block"/><use x="1008" y="1107" xlink:href="#block"/><use x="1041" y="1107" xlink:href="#block"/><use x="1074" y="1107" xlink:href="#block"/><use x="1107" y="1107" xlink:href="#block"/><use x="1140" y="1107" xlink:href="#block"/><use x="1173" y="1107" xlink:href="#block"/><use x="1239" y="1107" xlink:href="#block"/><use x="51" y="1140" xlink:href="#block"/><use x="117" y="1140" xlink:href="#block"/><use x="150" y="1140" xlink:href="#block"/><use x="183" y="1140" xlink:href="#block"/><use x="249" y="1140" xlink:href="#block"/><use x="381" y="1140" xlink:href="#block"/><use x="513" y="1140" xlink:href="#block"/><use x="711" y="1140" xlink:href="#block"/><use x="744" y="1140" xlink:href="#block"/><use x="777" y="1140" xlink:href="#block"/><use x="975" y="1140" xlink:href="#block"/><use x="1074" y="1140" xlink:href="#block"/><use x="1107" y="1140" xlink:href="#block"/><use x="1206" y="1140" xlink:href="#block"/><use x="51" y="1173" xlink:href="#block"/><use x="117" y="1173" xlink:href="#block"/><use x="150" y="1173" xlink:href="#block"/><use x="183" y="1173" xlink:href="#block"/><use x="249" y="1173" xlink:href="#block"/><use x="315" y="1173" xlink:href="#block"/><use x="348" y="1173" xlink:href="#block"/><use x="381" y="1173" xlink:href="#block"/><use x="480" y="1173" xlink:href="#block"/><use x="513" y="1173" xlink:href="#block"/><use x="546" y="1173" xlink:href="#block"/><use x="579" y="1173" xlink:href="#block"/><use x="645" y="1173" xlink:href="#block"/><use x="678" y="1173" xlink:href="#block"/><use x="711" y="1173" xlink:href="#block"/><use x="777" y="1173" xlink:href="#block"/><use x="810" y="1173" xlink:href="#block"/><use x="942" y="1173" xlink:href="#block"/><use x="975" y="1173" xlink:href="#block"/><use x="1008" y="1173" xlink:href="#block"/><use x="1041" y="1173" xlink:href="#block"/><use x="1074" y="1173" xlink:href="#block"/><use x="1107" y="1173" xlink:href="#block"/><use x="1140" y="1173" xlink:href="#block"/><use x="1206" y="1173" xlink:href="#block"/><use x="1239" y="1173" xlink:href="#block"/><use x="51" y="1206" xlink:href="#block"/><use x="249" y="1206" xlink:href="#block"/><use x="381" y="1206" xlink:href="#block"/><use x="414" y="1206" xlink:href="#block"/><use x="480" y="1206" xlink:href="#block"/><use x="513" y="1206" xlink:href="#block"/><use x="546" y="1206" xlink:href="#block"/><use x="711" y="1206" xlink:href="#block"/><use x="744" y="1206" xlink:href="#block"/><use x="777" y="1206" xlink:href="#block"/><use x="909" y="1206" xlink:href="#block"/><use x="942" y="1206" xlink:href="#block"/><use x="975" y="1206" xlink:href="#block"/><use x="1008" y="1206" xlink:href="#block"/><use x="1107" y="1206" xlink:href="#block"/><use x="1140" y="1206" xlink:href="#block"/><use x="1173" y="1206" xlink:href="#block"/><use x="1206" y="1206" xlink:href="#block"/><use x="1239" y="1206" xlink:href="#block"/><use x="51" y="1239" xlink:href="#block"/><use x="84" y="1239" xlink:href="#block"/><use x="117" y="1239" xlink:href="#block"/><use x="150" y="1239" xlink:href="#block"/><use x="183" y="1239" xlink:href="#block"/><use x="216" y="1239" xlink:href="#block"/><use x="249" y="1239" xlink:href="#block"/><use x="381" y="1239" xlink:href="#block"/><use x="447" y="1239" xlink:href="#block"/><use x="480" y="1239" xlink:href="#block"/><use x="612" y="1239" xlink:href="#block"/><use x="777" y="1239" xlink:href="#block"/><use x="810" y="1239" xlink:href="#block"/><use x="843" y="1239" xlink:href="#block"/><use x="876" y="1239" xlink:href="#block"/><use x="942" y="1239" xlink:href="#block"/><use x="975" y="1239" xlink:href="#block"/><use x="1107" y="1239" xlink:href="#block"/><use x="1140" y="1239" xlink:href="#block"/><use x="1239" y="1239" xlink:href="#block"/></svg>
